<?xml version="1.0" standalone="no"?>
<!DOCTYPE svg PUBLIC "-//W3C//DTD SVG 20010904//EN"
 "http://www.w3.org/TR/2001/REC-SVG-20010904/DTD/svg10.dtd">
<svg version="1.0" xmlns="http://www.w3.org/2000/svg"
 width="654.000000pt" height="150.000000pt" viewBox="0 0 654.000000 150.000000"
 preserveAspectRatio="xMidYMid meet">

<g transform="translate(0.000000,150.000000) scale(0.100000,-0.100000)"
fill="#000000" stroke="none">
<path d="M572 1436 c-130 -35 -223 -88 -317 -181 -90 -89 -142 -169 -182 -283
-26 -71 -28 -88 -28 -228 0 -92 4 -160 11 -175 7 -13 24 -57 39 -97 76 -203
278 -371 505 -418 114 -24 288 -14 375 21 17 7 46 18 65 25 19 7 42 19 50 25
8 7 29 20 46 28 44 23 130 103 175 164 52 70 81 125 114 220 25 70 28 91 28
208 0 116 -3 139 -29 215 -39 117 -96 209 -179 291 -59 58 -153 129 -171 129
-3 0 -24 9 -47 19 -23 10 -61 24 -84 30 -24 6 -60 16 -82 21 -64 17 -198 10
-289 -14z"/>
<path d="M5079 1187 c-184 -63 -270 -200 -269 -430 1 -149 42 -258 127 -337
93 -87 147 -104 318 -105 161 0 250 24 357 95 l53 35 3 163 c1 89 1 162 0 162
-2 1 -78 3 -169 7 -204 7 -211 4 -207 -70 l3 -52 110 -5 110 -5 3 -49 c4 -62
-10 -88 -56 -111 -91 -43 -213 -57 -293 -32 -51 15 -123 77 -148 126 -11 20
-25 71 -32 113 -15 93 -2 185 39 262 57 106 180 150 319 114 35 -10 63 -27
102 -65 58 -58 60 -58 149 -26 23 9 42 22 42 30 0 24 -47 89 -87 120 -82 63
-153 83 -298 83 -88 0 -123 -5 -176 -23z"/>
<path d="M1735 1188 c-3 -7 -4 -204 -3 -438 l3 -425 245 -3 c313 -4 389 10
464 84 64 63 84 169 47 249 -23 50 -42 68 -114 100 -31 15 -57 30 -57 34 0 4
17 16 38 25 105 48 134 203 55 297 -61 72 -140 88 -441 89 -177 0 -234 -3
-237 -12z m446 -119 c71 -15 99 -46 99 -111 0 -41 -5 -54 -28 -78 -34 -34 -89
-43 -237 -38 l-100 3 -3 104 c-2 67 1 108 9 117 14 18 183 19 260 3z m17 -359
c77 -13 105 -30 127 -76 38 -82 -11 -162 -111 -182 -77 -16 -276 -16 -292 0
-8 8 -12 51 -12 128 0 77 4 120 12 128 15 15 187 16 276 2z"/>
<path d="M2675 1178 c-3 -13 -4 -210 -3 -438 l3 -415 358 -3 358 -2 -3 62 -3
63 -254 3 c-171 1 -259 6 -268 14 -10 8 -13 38 -11 122 l3 111 235 5 235 5 0
60 0 60 -224 3 c-145 1 -229 6 -238 13 -9 8 -13 41 -13 114 0 85 3 104 16 109
9 3 123 6 254 6 l238 0 5 23 c4 19 4 44 -2 95 -1 9 -76 12 -341 12 l-340 0 -5
-22z"/>
<path d="M3545 1188 c-3 -7 -4 -204 -3 -438 l3 -425 85 0 85 0 3 415 c1 228 0
425 -3 438 -5 21 -11 22 -86 22 -54 0 -81 -4 -84 -12z"/>
<path d="M3905 1178 c-3 -13 -4 -210 -3 -438 l3 -415 72 -3 73 -3 2 327 c2
231 6 328 14 331 6 2 14 -4 18 -14 3 -10 14 -31 24 -48 10 -16 34 -57 52 -89
18 -33 55 -98 81 -144 27 -47 49 -86 49 -87 0 -1 28 -51 63 -111 34 -60 68
-122 76 -137 l15 -28 105 3 106 3 3 405 c2 223 0 420 -3 438 l-6 33 -72 -3
-72 -3 0 -328 c0 -180 -3 -327 -6 -327 -3 0 -13 8 -21 18 -13 14 -163 273
-253 437 -15 28 -31 55 -35 60 -4 6 -22 37 -40 70 -18 33 -38 63 -44 67 -6 4
-53 8 -103 8 -88 0 -93 -1 -98 -22z"/>
<path d="M5860 1135 l0 -65 199 0 c157 0 201 -3 210 -14 9 -11 -9 -40 -90
-142 -55 -71 -138 -176 -183 -233 -44 -57 -105 -134 -133 -170 -51 -64 -53
-68 -53 -129 l0 -62 353 2 352 3 3 39 c2 22 1 50 -2 63 l-6 23 -233 0 c-127 0
-238 4 -246 9 -8 5 -11 15 -8 22 3 8 109 146 236 308 l231 294 0 58 0 59 -315
0 -315 0 0 -65z"/>
</g>
</svg>
