<?xml version="1.0" standalone="no"?>
<!DOCTYPE svg PUBLIC "-//W3C//DTD SVG 20010904//EN"
 "http://www.w3.org/TR/2001/REC-SVG-20010904/DTD/svg10.dtd">
<svg version="1.0" xmlns="http://www.w3.org/2000/svg"
 width="1251.000000pt" height="1251.000000pt" viewBox="0 0 1251.000000 1251.000000"
 preserveAspectRatio="xMidYMid meet">
<metadata>
Created by potrace 1.14, written by Peter Selinger 2001-2017
</metadata>
<g transform="translate(0.000000,1251.000000) scale(0.100000,-0.100000)"
fill="#000000" stroke="none">
<path d="M0 6255 l0 -6255 6255 0 6255 0 0 6255 0 6255 -6255 0 -6255 0 0
-6255z m4690 1263 l0 -473 24 -51 c72 -156 296 -165 383 -16 l28 47 3 483 3
482 449 0 450 0 0 -1735 0 -1735 -1060 0 -1060 0 0 458 c0 509 -2 530 -62 591
-111 114 -294 86 -359 -54 -17 -37 -19 -74 -19 -517 l0 -478 -455 0 -455 0 0
1735 0 1735 1065 0 1065 0 0 -472z m5260 -2773 l0 -225 -1735 0 -1735 0 0 225
0 225 1735 0 1735 0 0 -225z"/>
</g>
</svg>
